<?xml version="1.0" encoding="UTF-8" standalone="no"?>
<!DOCTYPE svg PUBLIC "-//W3C//DTD SVG 1.1//EN" "http://www.w3.org/Graphics/SVG/1.1/DTD/svg11.dtd">
<svg width="100%" height="100%" viewBox="0 0 627 296" version="1.1" xmlns="http://www.w3.org/2000/svg" xmlns:xlink="http://www.w3.org/1999/xlink" xml:space="preserve" xmlns:serif="http://www.serif.com/" style="fill-rule:evenodd;clip-rule:evenodd;stroke-linejoin:round;stroke-miterlimit:2;">
    <g transform="matrix(2.66667,0,0,2.66667,0,0)">
        <g transform="matrix(3.43505,-4.20673e-16,-3.25694e-16,-2.65949,-24.5475,128.283)">
            <g>
                <path d="M61.191,9.232C54.268,7.589 46.871,8.91 40.42,11.658C29.444,16.337 20.224,26.049 16.4,37.418C15.824,33.134 15.248,28.85 14.672,24.568C14.494,23.242 12.492,23.81 12.667,25.118C13.417,30.692 14.166,36.262 14.915,41.835C15.031,42.692 16.132,42.722 16.652,42.292C21.322,38.441 25.993,34.59 30.664,30.739C31.698,29.886 30.219,28.423 29.193,29.27C25.568,32.257 21.944,35.246 18.319,38.237C21.768,27.83 29.857,19.197 39.604,14.318C45.313,11.461 51.79,10.129 58.153,10.805C61.198,11.129 64.188,12.099 66.774,13.737C68.962,15.123 71.472,17.363 71.502,20.154C71.516,21.494 73.594,21.495 73.58,20.154C73.516,14.081 66.252,10.432 61.191,9.232Z" style="fill:rgb(207,213,222);fill-rule:nonzero;"/>
            </g>
        </g>
    </g>
</svg>
